<svg version="1.2" baseProfile="tiny" xmlns="http://www.w3.org/2000/svg" viewBox="0 0 595.3 841.9" xml:space="preserve"><path d="M84.1 292.4H457v372.9H84.1z"/><path fill="#FFF" d="m323.2 576.7-.7-.4 99.3-57.3.7.4zM420.9 324l.7.4c-.2-.1-.6-.1-.9.1l-.7-.4c.3-.2.6-.2.9-.1zm-98 154.9-.7-.4 99.3-57.3.7.4zm-42.1 171.3-.7-.4-.7-244.5.7.4zm-.7-244.5-.7-.4 140.5-81.2.7.4z"/><path fill="#FFF" d="M420.6 324.5c.7-.4 1.3-.1 1.3.7l.1 47.4-99.2 57.4.1 48.9 99.3-57.3.1 48.9-99.3 57.3.1 48.9 99.3-57.3.1 48.9-141.9 81.9-.7-244.6 140.7-81.1zM149.1 577.8l-.7.4c3.4-2 5.5-6.2 5.5-12.1l.7-.4c0 5.9-2.1 10.1-5.5 12.1z"/><path fill="#FFF" d="m154 511.6.8-.4-.2 54.5-.7.4z"/><path fill="#FFF" d="m159.6 499.5.7-.4c-3.4 2-5.5 6.2-5.5 12.1l-.7.4c0-5.9 2.1-10.1 5.5-12.1zm-5.3-93.8.8-.4-.2 43.5-.7.4z"/><path fill="#FFF" d="m159.9 393.6.7-.4c-3.4 2-5.5 6.2-5.5 12.1l-.7.4c0-6 2.1-10.2 5.5-12.1zm60.5 86.6-.7.4c-3.4 2-8.2 1.7-13.4-1.3l.7-.4c5.2 3 10 3.3 13.4 1.3z"/><path fill="#FFF" d="m137.9 333.6 123 71-.7 244.6-35.5-20.5.3-97.8-52-30c-10.4-6-18.9-1.2-18.9 10.8l-.2 54.4c0 12-8.5 16.8-18.9 10.8l-16.6-9.6.6-222.9c0-11.9 8.5-16.8 18.9-10.8zm87.3 134.9.1-43.5-52.1-30.1c-10.4-6-18.9-1.2-18.9 10.8l-.1 43.5 52.1 30.1c10.4 6 18.9 1.1 18.9-10.8"/><path fill="#FFF" d="m154.2 449.2.7-.4 52.1 30-.7.5zm-29.7-116.9.7-.4c3.4-2 8.2-1.7 13.4 1.3l-.7.4c-5.2-3-10-3.3-13.4-1.3zm13.4 1.3.7-.4 123 71.1-.7.4zm123 71.1.7-.4-.7 244.5-.7.4zm9.6-66.4 143.6-28.5-142.7 79.1-144.6-80.5 143.7 29.9z"/></svg>