<svg version="1.1" id="Layer_1" xmlns="http://www.w3.org/2000/svg" xmlns:xlink="http://www.w3.org/1999/xlink" x="0px" y="0px"
	 width="100%" viewBox="0 0 464 464" enable-background="new 0 0 464 464" xml:space="preserve">
<path fill="#353F4E" opacity="1.000000" stroke="none" 
	d="
M300.000000,465.000000 
	C200.000000,465.000000 100.500000,465.000000 1.000000,465.000000 
	C1.000000,310.333344 1.000000,155.666672 1.000000,1.000000 
	C155.666672,1.000000 310.333344,1.000000 465.000000,1.000000 
	C465.000000,155.666672 465.000000,310.333344 465.000000,465.000000 
	C410.166656,465.000000 355.333344,465.000000 300.000000,465.000000 
M89.308502,332.478363 
	C89.308502,336.564026 89.308502,340.649658 89.308502,344.699524 
	C96.397423,344.699524 102.643677,344.699524 109.461014,344.699524 
	C109.461014,323.371246 109.461014,302.345459 109.461014,281.319672 
	C111.419235,282.468628 112.446785,283.863434 113.355957,285.331512 
	C124.922249,304.007874 136.448547,322.709137 148.070862,341.350494 
	C148.954788,342.768250 150.436447,344.749115 151.729050,344.818665 
	C158.297073,345.172211 164.894394,344.981659 171.432281,344.981659 
	C171.432281,310.052673 171.432281,275.855896 171.432281,241.582016 
	C164.771210,241.582016 158.531418,241.582016 151.813660,241.582016 
	C151.813660,263.637665 151.813660,285.344818 151.813660,308.614014 
	C150.056580,306.028534 149.122955,304.766663 148.304810,303.433868 
	C138.292465,287.123413 127.500648,271.222809 118.587440,254.331299 
	C112.986855,243.717575 106.197388,239.309692 94.431015,241.020569 
	C90.349174,241.614059 89.205208,242.503204 89.227158,246.537247 
	C89.381264,274.852234 89.308647,303.168488 89.308502,332.478363 
M229.501099,281.676331 
	C224.735519,281.676331 219.969955,281.676331 215.023407,281.676331 
	C215.023407,273.892883 215.023407,266.831024 215.023407,259.287628 
	C233.485275,259.287628 251.588654,259.287628 269.739197,259.287628 
	C269.739197,253.075043 269.739197,247.355484 269.739197,241.560349 
	C244.108978,241.560349 218.877380,241.560349 193.403488,241.560349 
	C193.403488,276.102020 193.403488,310.310730 193.403488,344.649963 
	C219.740799,344.649963 245.773987,344.649963 271.839447,344.649963 
	C271.839447,338.694885 271.839447,333.101654 271.839447,326.887421 
	C252.700851,326.887421 233.823395,326.887421 215.067642,326.887421 
	C215.067642,317.516327 215.067642,308.777466 215.067642,299.558105 
	C232.218933,299.558105 248.968521,299.558105 265.857117,299.558105 
	C265.857117,293.347900 265.857117,287.639618 265.857117,281.676392 
	C253.804611,281.676392 242.153107,281.676392 229.501099,281.676331 
M238.908752,154.384674 
	C238.801407,156.799881 238.694046,159.215073 238.590927,161.535248 
	C225.056839,161.535248 212.154877,161.535248 198.746017,161.535248 
	C198.746017,159.329651 198.746140,157.524048 198.746002,155.718460 
	C198.745239,145.893570 198.572235,136.064224 198.826874,126.245964 
	C198.931442,122.213570 197.513565,120.901115 193.638748,121.178391 
	C189.993927,121.439209 186.289444,121.509361 182.658905,121.163200 
	C178.163925,120.734612 177.051788,122.501175 177.075546,126.829590 
	C177.245544,157.802032 177.161942,188.775833 177.180786,219.749191 
	C177.181763,221.356461 177.382233,222.963577 177.494522,224.640717 
	C184.697815,224.640717 191.421890,224.640717 198.784454,224.640717 
	C198.784454,209.722229 198.784454,195.158386 198.784454,180.393707 
	C212.447479,180.393707 225.462769,180.393707 239.054916,180.393707 
	C239.054916,195.377335 239.054916,209.942444 239.054916,224.587402 
	C246.348282,224.587402 253.054382,224.587402 259.944489,224.587402 
	C260.027771,222.697311 260.149567,221.214966 260.150116,219.732574 
	C260.161407,188.759201 260.159424,157.785828 260.157318,126.812462 
	C260.157257,125.813576 260.429749,124.669373 260.035980,123.853012 
	C259.556000,122.857971 258.528320,121.439865 257.696594,121.411621 
	C251.600098,121.204628 245.493347,121.299957 238.908737,121.299957 
	C238.908737,132.489212 238.908737,142.952057 238.908752,154.384674 
M365.526672,222.002457 
	C355.206146,206.458786 344.957733,190.866333 334.499054,175.416168 
	C332.604675,172.617691 332.649414,170.631027 334.471436,167.847687 
	C343.412201,154.189713 352.149872,140.398651 360.936401,126.639977 
	C361.867859,125.181435 362.649567,123.627258 363.999512,121.232849 
	C357.019562,121.232849 351.047211,121.559952 345.130585,121.126419 
	C340.626129,120.796379 338.239075,122.541595 336.077606,126.320526 
	C330.895142,135.381149 325.248779,144.176437 319.391388,153.728241 
	C317.962769,151.596405 316.928925,150.136642 315.979950,148.623657 
	C311.023254,140.721146 306.124451,132.781921 301.110138,124.916260 
	C300.259613,123.582092 298.983185,121.570877 297.838623,121.525948 
	C290.147095,121.223999 282.438019,121.368782 273.883820,121.368782 
	C275.360474,123.813568 276.174042,125.243935 277.065704,126.623878 
	C285.744873,140.055923 294.352539,153.535629 303.191467,166.861862 
	C305.137726,169.796188 305.221619,171.903107 303.222900,174.884735 
	C293.391022,189.551575 283.796478,204.377548 274.133026,219.157059 
	C273.074646,220.775757 272.111603,222.456772 270.557526,225.005844 
	C278.103058,225.005844 284.692688,224.808838 291.262482,225.084412 
	C294.840546,225.234512 297.030945,224.131027 298.930084,221.014359 
	C304.302948,212.197067 310.010803,203.583527 315.616302,194.908859 
	C316.551056,193.462341 317.634155,192.111694 318.954468,190.296356 
	C320.322540,192.282074 321.287781,193.604645 322.172028,194.979309 
	C327.939636,203.945572 333.628906,212.963364 339.510712,221.853836 
	C340.397186,223.193710 342.119263,224.785370 343.516876,224.846710 
	C350.502380,225.153244 357.509521,225.035431 364.505310,224.887589 
	C364.992950,224.877304 365.449890,223.414154 365.526672,222.002457 
M333.879944,268.516113 
	C333.879944,265.569275 333.879944,262.622437 333.879944,259.160400 
	C344.292786,259.160400 354.043488,259.160400 363.815979,259.160400 
	C363.815979,252.924728 363.815979,247.222168 363.815979,241.596497 
	C336.342316,241.596497 309.285522,241.596497 282.093903,241.596497 
	C282.093903,247.586121 282.093903,253.200729 282.093903,259.309265 
	C292.085785,259.309265 301.856140,259.309265 312.409790,259.309265 
	C312.409790,288.114563 312.409790,316.435669 312.409790,344.669189 
	C319.958008,344.669189 326.703705,344.669189 333.879944,344.669189 
	C333.879944,319.391846 333.879944,294.453674 333.879944,268.516113 
M156.350616,139.300156 
	C158.796967,139.300156 161.243332,139.300156 164.216782,139.300156 
	C164.216782,134.624176 163.930069,130.628448 164.292145,126.692390 
	C164.708984,122.160904 162.901520,121.102280 158.607880,121.136414 
	C134.946671,121.324532 111.283173,121.219559 87.620476,121.239334 
	C85.846458,121.240814 84.072594,121.431541 82.232040,121.538155 
	C82.232040,127.652855 82.232040,133.227158 82.232040,139.302841 
	C90.562263,139.302841 98.551582,139.552322 106.515297,139.208603 
	C111.237198,139.004791 112.408096,140.773636 112.375198,145.241119 
	C112.196022,169.569061 112.283455,193.899017 112.305588,218.228271 
	C112.307510,220.343445 112.501183,222.458450 112.609474,224.647842 
	C119.834091,224.647842 126.569130,224.647842 133.874741,224.647842 
	C133.874741,222.332291 133.874664,220.373840 133.874756,218.415405 
	C133.875854,193.752869 133.944336,169.089951 133.807999,144.428162 
	C133.786652,140.570862 134.908813,139.042542 138.895309,139.237793 
	C144.381134,139.506454 149.890137,139.301575 156.350616,139.300156 
M397.316498,334.500305 
	C397.316498,331.394135 397.316498,328.287964 397.316498,325.070282 
	C390.225800,325.070282 383.838379,325.070282 377.333862,325.070282 
	C377.333862,331.813141 377.333862,338.207855 377.333862,344.689423 
	C384.060089,344.689423 390.465302,344.689423 397.316528,344.689423 
	C397.316528,341.416595 397.316528,338.449951 397.316498,334.500305 
z"/>
<path fill="#CDCCCC" opacity="1.000000" stroke="none" 
	d="
M89.308517,331.981323 
	C89.308647,303.168488 89.381264,274.852234 89.227158,246.537247 
	C89.205208,242.503204 90.349174,241.614059 94.431015,241.020569 
	C106.197388,239.309692 112.986855,243.717575 118.587440,254.331299 
	C127.500648,271.222809 138.292465,287.123413 148.304810,303.433868 
	C149.122955,304.766663 150.056580,306.028534 151.813660,308.614014 
	C151.813660,285.344818 151.813660,263.637665 151.813660,241.582016 
	C158.531418,241.582016 164.771210,241.582016 171.432281,241.582016 
	C171.432281,275.855896 171.432281,310.052673 171.432281,344.981659 
	C164.894394,344.981659 158.297073,345.172211 151.729050,344.818665 
	C150.436447,344.749115 148.954788,342.768250 148.070862,341.350494 
	C136.448547,322.709137 124.922249,304.007874 113.355957,285.331512 
	C112.446785,283.863434 111.419235,282.468628 109.461014,281.319672 
	C109.461014,302.345459 109.461014,323.371246 109.461014,344.699524 
	C102.643677,344.699524 96.397423,344.699524 89.308502,344.699524 
	C89.308502,340.649658 89.308502,336.564026 89.308517,331.981323 
z"/>
<path fill="#CDCCCC" opacity="1.000000" stroke="none" 
	d="
M230.001343,281.676361 
	C242.153107,281.676392 253.804611,281.676392 265.857117,281.676392 
	C265.857117,287.639618 265.857117,293.347900 265.857117,299.558105 
	C248.968521,299.558105 232.218933,299.558105 215.067642,299.558105 
	C215.067642,308.777466 215.067642,317.516327 215.067642,326.887421 
	C233.823395,326.887421 252.700851,326.887421 271.839447,326.887421 
	C271.839447,333.101654 271.839447,338.694885 271.839447,344.649963 
	C245.773987,344.649963 219.740799,344.649963 193.403488,344.649963 
	C193.403488,310.310730 193.403488,276.102020 193.403488,241.560349 
	C218.877380,241.560349 244.108978,241.560349 269.739197,241.560349 
	C269.739197,247.355484 269.739197,253.075043 269.739197,259.287628 
	C251.588654,259.287628 233.485275,259.287628 215.023407,259.287628 
	C215.023407,266.831024 215.023407,273.892883 215.023407,281.676331 
	C219.969955,281.676331 224.735519,281.676331 230.001343,281.676361 
z"/>
<path fill="#66D59F" opacity="1.000000" stroke="none" 
	d="
M238.908752,153.899796 
	C238.908737,142.952057 238.908737,132.489212 238.908737,121.299957 
	C245.493347,121.299957 251.600098,121.204628 257.696594,121.411621 
	C258.528320,121.439865 259.556000,122.857971 260.035980,123.853012 
	C260.429749,124.669373 260.157257,125.813576 260.157318,126.812462 
	C260.159424,157.785828 260.161407,188.759201 260.150116,219.732574 
	C260.149567,221.214966 260.027771,222.697311 259.944489,224.587402 
	C253.054382,224.587402 246.348282,224.587402 239.054916,224.587402 
	C239.054916,209.942444 239.054916,195.377335 239.054916,180.393707 
	C225.462769,180.393707 212.447479,180.393707 198.784454,180.393707 
	C198.784454,195.158386 198.784454,209.722229 198.784454,224.640717 
	C191.421890,224.640717 184.697815,224.640717 177.494522,224.640717 
	C177.382233,222.963577 177.181763,221.356461 177.180786,219.749191 
	C177.161942,188.775833 177.245544,157.802032 177.075546,126.829590 
	C177.051788,122.501175 178.163925,120.734612 182.658905,121.163200 
	C186.289444,121.509361 189.993927,121.439209 193.638748,121.178391 
	C197.513565,120.901115 198.931442,122.213570 198.826874,126.245964 
	C198.572235,136.064224 198.745239,145.893570 198.746002,155.718460 
	C198.746140,157.524048 198.746017,159.329651 198.746017,161.535248 
	C212.154877,161.535248 225.056839,161.535248 238.590927,161.535248 
	C238.694046,159.215073 238.801407,156.799881 238.908752,153.899796 
z"/>
<path fill="#66D59F" opacity="1.000000" stroke="none" 
	d="
M365.723907,222.314529 
	C365.449890,223.414154 364.992950,224.877304 364.505310,224.887589 
	C357.509521,225.035431 350.502380,225.153244 343.516876,224.846710 
	C342.119263,224.785370 340.397186,223.193710 339.510712,221.853836 
	C333.628906,212.963364 327.939636,203.945572 322.172028,194.979309 
	C321.287781,193.604645 320.322540,192.282074 318.954468,190.296356 
	C317.634155,192.111694 316.551056,193.462341 315.616302,194.908859 
	C310.010803,203.583527 304.302948,212.197067 298.930084,221.014359 
	C297.030945,224.131027 294.840546,225.234512 291.262482,225.084412 
	C284.692688,224.808838 278.103058,225.005844 270.557526,225.005844 
	C272.111603,222.456772 273.074646,220.775757 274.133026,219.157059 
	C283.796478,204.377548 293.391022,189.551575 303.222900,174.884735 
	C305.221619,171.903107 305.137726,169.796188 303.191467,166.861862 
	C294.352539,153.535629 285.744873,140.055923 277.065704,126.623878 
	C276.174042,125.243935 275.360474,123.813568 273.883820,121.368782 
	C282.438019,121.368782 290.147095,121.223999 297.838623,121.525948 
	C298.983185,121.570877 300.259613,123.582092 301.110138,124.916260 
	C306.124451,132.781921 311.023254,140.721146 315.979950,148.623657 
	C316.928925,150.136642 317.962769,151.596405 319.391388,153.728241 
	C325.248779,144.176437 330.895142,135.381149 336.077606,126.320526 
	C338.239075,122.541595 340.626129,120.796379 345.130585,121.126419 
	C351.047211,121.559952 357.019562,121.232849 363.999512,121.232849 
	C362.649567,123.627258 361.867859,125.181435 360.936401,126.639977 
	C352.149872,140.398651 343.412201,154.189713 334.471436,167.847687 
	C332.649414,170.631027 332.604675,172.617691 334.499054,175.416168 
	C344.957733,190.866333 355.206146,206.458786 365.723907,222.314529 
z"/>
<path fill="#CCCBCB" opacity="1.000000" stroke="none" 
	d="
M333.879944,269.015808 
	C333.879944,294.453674 333.879944,319.391846 333.879944,344.669189 
	C326.703705,344.669189 319.958008,344.669189 312.409790,344.669189 
	C312.409790,316.435669 312.409790,288.114563 312.409790,259.309265 
	C301.856140,259.309265 292.085785,259.309265 282.093903,259.309265 
	C282.093903,253.200729 282.093903,247.586121 282.093903,241.596497 
	C309.285522,241.596497 336.342316,241.596497 363.815979,241.596497 
	C363.815979,247.222168 363.815979,252.924728 363.815979,259.160400 
	C354.043488,259.160400 344.292786,259.160400 333.879944,259.160400 
	C333.879944,262.622437 333.879944,265.569275 333.879944,269.015808 
z"/>
<path fill="#66D39E" opacity="1.000000" stroke="none" 
	d="
M155.869919,139.299866 
	C149.890137,139.301575 144.381134,139.506454 138.895309,139.237793 
	C134.908813,139.042542 133.786652,140.570862 133.807999,144.428162 
	C133.944336,169.089951 133.875854,193.752869 133.874756,218.415405 
	C133.874664,220.373840 133.874741,222.332291 133.874741,224.647842 
	C126.569130,224.647842 119.834091,224.647842 112.609474,224.647842 
	C112.501183,222.458450 112.307510,220.343445 112.305588,218.228271 
	C112.283455,193.899017 112.196022,169.569061 112.375198,145.241119 
	C112.408096,140.773636 111.237198,139.004791 106.515297,139.208603 
	C98.551582,139.552322 90.562263,139.302841 82.232040,139.302841 
	C82.232040,133.227158 82.232040,127.652855 82.232040,121.538155 
	C84.072594,121.431541 85.846458,121.240814 87.620476,121.239334 
	C111.283173,121.219559 134.946671,121.324532 158.607880,121.136414 
	C162.901520,121.102280 164.708984,122.160904 164.292145,126.692390 
	C163.930069,130.628448 164.216782,134.624176 164.216782,139.300156 
	C161.243332,139.300156 158.796967,139.300156 155.869919,139.299866 
z"/>
<path fill="#D0CECE" opacity="1.000000" stroke="none" 
	d="
M397.316528,334.991821 
	C397.316528,338.449951 397.316528,341.416595 397.316528,344.689423 
	C390.465302,344.689423 384.060089,344.689423 377.333862,344.689423 
	C377.333862,338.207855 377.333862,331.813141 377.333862,325.070282 
	C383.838379,325.070282 390.225800,325.070282 397.316498,325.070282 
	C397.316498,328.287964 397.316498,331.394135 397.316528,334.991821 
z"/>
</svg>
