<svg id="THX_NET_LOGO.svg" data-name="THX NET LOGO.svg" xmlns="http://www.w3.org/2000/svg" width="1000" height="1000" viewBox="0 0 1000 1000">
  <defs>
    <style>
      .cls-1 {
        fill: #313e4e;
        stroke: #0c0307;
        stroke-width: 1px;
      }

      .cls-2 {
        fill: #50a983;
      }

      .cls-2, .cls-3 {
        fill-rule: evenodd;
      }

      .cls-3 {
        fill: #cfcdcd;
      }
    </style>
  </defs>
  <g id="background">
    <rect id="長方形_1" data-name="長方形 1" class="cls-1" width="1000" height="1000"/>
  </g>
  <g id="THX_NET" data-name="THX NET">
    <path id="THX" class="cls-2" d="M307.9,472.258V285.167h66.665V247.073H195.616v38.094h66.818V472.258H307.9Zm135.332,0V373.8h89.091v98.461h45.467V247.073H532.324V335.7H443.233v-88.63H397.766V472.258h45.467Zm206.912,0,50.076-77.878,49.921,77.878h54.837L728.023,356.44l70.044-109.367H745.381l-44.239,72.348-45.16-72.348H602.835L672.572,354.75,595.616,472.258h54.529Z"/>
    <path id="NET" class="cls-3" d="M240.009,755.258V608.411l90.78,146.847H376.41V530.073H334.169V680.452L242.006,530.073H197.767V755.258h42.242Zm349.458,0V717.317h-125.8V656.029H576.717V618.088H463.664V568.167h121.5V530.073H418.2V755.258h171.27Zm147.295,0V568.167h66.664V530.073H624.476v38.094H691.3V755.258h45.467Z"/>
    <path id="_." data-name="." class="cls-3" d="M859.191,755.258V712.1H816.028v43.163h43.163Z"/>
  </g>
</svg>
